<svg width="222" height="27" viewBox="0 0 222 27" fill="none" xmlns="http://www.w3.org/2000/svg">
<path d="M1.18562 5.28729C1.95468 3.87736 3.04417 2.75582 4.4541 1.98677C5.86403 1.18567 7.43418 0.801147 9.22864 0.801147C11.4076 0.801147 13.2662 1.37794 14.8043 2.53152C16.3424 3.6851 17.3998 5.25525 17.9125 7.20992H12.9778C12.6253 6.44087 12.0805 5.86408 11.4397 5.44751C10.7667 5.06298 9.99769 4.83868 9.16455 4.83868C7.78666 4.83868 6.66513 5.31933 5.83199 6.28065C4.9668 7.24197 4.55023 8.52372 4.55023 10.1259C4.55023 11.7281 4.9668 13.0099 5.83199 13.9712C6.69717 14.9325 7.78666 15.4132 9.16455 15.4132C10.0297 15.4132 10.7667 15.2209 11.4397 14.8043C12.1126 14.4198 12.6253 13.811 12.9778 13.0419H17.8805C17.3678 15.0286 16.3103 16.5988 14.7722 17.7203C13.2341 18.8739 11.3756 19.4186 9.19659 19.4186C7.43418 19.4186 5.83199 19.0341 4.42206 18.233C3.04417 17.464 1.95468 16.3424 1.18562 14.9325C0.384527 13.5226 0 11.9204 0 10.1259C0 8.29942 0.384527 6.69722 1.18562 5.28729Z" fill="#344B63"/>
<path d="M23.3921 18.5854C22.2385 17.9766 21.3733 17.1114 20.7004 15.9898C20.0595 14.8683 19.707 13.5545 19.707 12.0164C19.707 10.5103 20.0275 9.19653 20.7004 8.075C21.3733 6.92142 22.2705 6.05623 23.4241 5.4474C24.5777 4.83857 25.8595 4.55017 27.2694 4.55017C28.6793 4.55017 29.9931 4.83857 31.1147 5.4474C32.2682 6.05623 33.1655 6.92142 33.8384 8.075C34.5113 9.22858 34.8317 10.5424 34.8317 12.0164C34.8317 13.5225 34.5113 14.8363 33.8384 15.9578C33.1655 17.1114 32.2682 17.9766 31.1147 18.5854C29.9611 19.1942 28.6793 19.4826 27.2373 19.4826C25.8274 19.5147 24.5457 19.1942 23.3921 18.5854ZM29.4163 14.7081C30.0252 14.0672 30.3136 13.202 30.3136 12.0164C30.3136 10.8628 30.0252 9.96559 29.4484 9.32471C28.8716 8.68383 28.1346 8.39544 27.3014 8.39544C26.4362 8.39544 25.6992 8.71588 25.1224 9.32471C24.5457 9.93354 24.2573 10.8308 24.2573 12.0164C24.2573 13.17 24.5457 14.0672 25.0904 14.7081C25.6672 15.349 26.3722 15.6374 27.2053 15.6374C28.1025 15.6374 28.8395 15.3169 29.4163 14.7081Z" fill="#344B63"/>
<path d="M37.203 8.04295C37.7798 6.92142 38.5488 6.05623 39.5101 5.4474C40.4715 4.83857 41.5609 4.55017 42.7786 4.55017C43.804 4.55017 44.7012 4.77448 45.4703 5.19105C46.2394 5.60762 46.8482 6.15236 47.2648 6.82529V4.77448H51.7189V19.3224H47.2648V17.2716C46.8161 17.9445 46.2394 18.4893 45.4383 18.9058C44.6692 19.3224 43.772 19.5467 42.7466 19.5467C41.5609 19.5467 40.4715 19.2263 39.5101 18.6174C38.5488 18.0086 37.7798 17.1114 37.203 15.9898C36.6262 14.8363 36.3698 13.5225 36.3698 12.0484C36.3378 10.5103 36.6262 9.19653 37.203 8.04295ZM46.3355 9.3888C45.7267 8.74792 44.9576 8.42748 44.0924 8.42748C43.1952 8.42748 42.4582 8.74792 41.8493 9.3888C41.2405 10.0297 40.9201 10.8949 40.9201 12.0164C40.9201 13.1379 41.2405 14.0031 41.8493 14.676C42.4582 15.3169 43.2272 15.6694 44.0924 15.6694C44.9896 15.6694 45.7267 15.349 46.3355 14.7081C46.9443 14.0672 47.2648 13.202 47.2648 12.0805C47.2648 10.9589 46.9443 10.0297 46.3355 9.3888Z" fill="#344B63"/>
<path d="M54.9873 8.04295C55.5961 6.92142 56.4613 6.05623 57.5828 5.4474C58.6723 4.83857 59.9541 4.55017 61.364 4.55017C63.1905 4.55017 64.7286 5.03083 65.9463 5.99215C67.1639 6.95346 67.965 8.2993 68.3496 10.0297H63.6071C63.2225 8.90814 62.4214 8.36339 61.2999 8.36339C60.4668 8.36339 59.8259 8.68383 59.3452 9.32471C58.8646 9.96559 58.6082 10.8628 58.6082 12.0484C58.6082 13.2341 58.8646 14.1313 59.3452 14.7722C59.8259 15.413 60.4988 15.7335 61.2999 15.7335C62.4535 15.7335 63.2225 15.1887 63.6071 14.0672H68.3496C67.965 15.7655 67.1639 17.1114 65.9142 18.0727C64.6645 19.034 63.1584 19.5467 61.364 19.5467C59.9541 19.5467 58.6723 19.2583 57.5828 18.6495C56.4933 18.0406 55.6281 17.1755 54.9873 16.0539C54.3784 14.9324 54.058 13.6186 54.058 12.0805C54.058 10.5424 54.3464 9.19653 54.9873 8.04295Z" fill="#344B63"/>
<path d="M83.6666 6.24856C84.6599 7.33805 85.1726 8.87615 85.1726 10.7988V19.2904H80.7506V11.4076C80.7506 10.4463 80.4942 9.67725 79.9815 9.13251C79.4688 8.58776 78.7959 8.33141 77.9627 8.33141C77.0976 8.33141 76.4246 8.58776 75.944 9.13251C75.4313 9.67725 75.1749 10.4143 75.1749 11.4076V19.3225H70.7208V0H75.1749V6.69717C75.6235 6.05629 76.2324 5.54359 77.0335 5.15906C77.8025 4.77454 78.6998 4.58227 79.6611 4.58227C81.3274 4.58227 82.6732 5.12702 83.6666 6.24856Z" fill="#344B63"/>
<path d="M104.431 16.054H97.6057L96.5162 19.2905H91.8378L98.4708 0.993408H103.63L110.263 19.2905H105.553L104.431 16.054ZM103.277 12.6253L101.002 5.92817L98.7592 12.6253H103.277Z" fill="#00C49A"/>
<path d="M112.314 8.04295C112.923 6.92142 113.788 6.05623 114.909 5.4474C115.999 4.83857 117.281 4.55017 118.691 4.55017C120.517 4.55017 122.055 5.03083 123.273 5.99215C124.49 6.95346 125.292 8.2993 125.676 10.0297H120.934C120.549 8.90814 119.748 8.36339 118.626 8.36339C117.793 8.36339 117.152 8.68383 116.672 9.32471C116.191 9.96559 115.935 10.8628 115.935 12.0484C115.935 13.2341 116.191 14.1313 116.672 14.7722C117.152 15.413 117.825 15.7335 118.626 15.7335C119.78 15.7335 120.549 15.1887 120.934 14.0672H125.676C125.292 15.7655 124.49 17.1114 123.241 18.0727C121.991 19.034 120.485 19.5467 118.691 19.5467C117.281 19.5467 115.999 19.2583 114.909 18.6495C113.82 18.0406 112.955 17.1755 112.314 16.0539C111.705 14.9324 111.385 13.6186 111.385 12.0805C111.385 10.5424 111.673 9.19653 112.314 8.04295Z" fill="#00C49A"/>
<path d="M127.983 8.04295C128.56 6.92142 129.329 6.05623 130.29 5.4474C131.252 4.83857 132.341 4.55017 133.559 4.55017C134.584 4.55017 135.482 4.77448 136.251 5.19105C137.02 5.60762 137.628 6.15236 138.045 6.82529V4.77448H142.499V19.3224H138.045V17.2716C137.596 17.9445 137.02 18.4893 136.219 18.9058C135.45 19.3224 134.552 19.5467 133.527 19.5467C132.341 19.5467 131.252 19.2263 130.29 18.6174C129.329 18.0086 128.56 17.1114 127.983 15.9898C127.406 14.8363 127.15 13.5225 127.15 12.0484C127.15 10.5103 127.439 9.19653 127.983 8.04295ZM137.116 9.3888C136.507 8.74792 135.738 8.42748 134.873 8.42748C134.008 8.42748 133.238 8.74792 132.63 9.3888C132.021 10.0297 131.7 10.8949 131.7 12.0164C131.7 13.1379 132.021 14.0031 132.63 14.676C133.238 15.3169 134.008 15.6694 134.873 15.6694C135.738 15.6694 136.507 15.349 137.116 14.7081C137.725 14.0672 138.045 13.202 138.045 12.0805C138.045 10.9589 137.725 10.0297 137.116 9.3888Z" fill="#00C49A"/>
<path d="M145.703 8.04301C146.28 6.92148 147.049 6.05629 148.011 5.44746C148.972 4.83863 150.061 4.55023 151.279 4.55023C152.24 4.55023 153.106 4.74249 153.907 5.15906C154.708 5.54359 155.317 6.08834 155.765 6.76126V0H160.219V19.2904H155.765V17.2076C155.349 17.9125 154.74 18.4573 153.971 18.8738C153.202 19.2904 152.305 19.5147 151.279 19.5147C150.093 19.5147 149.004 19.1943 148.011 18.5855C147.049 17.9766 146.28 17.0794 145.703 15.9579C145.127 14.8043 144.87 13.4905 144.87 12.0165C144.838 10.5104 145.127 9.19659 145.703 8.04301ZM154.836 9.38886C154.227 8.74798 153.458 8.42754 152.593 8.42754C151.696 8.42754 150.959 8.74798 150.35 9.38886C149.741 10.0297 149.421 10.8949 149.421 12.0165C149.421 13.138 149.741 14.0032 150.35 14.6761C150.959 15.317 151.728 15.6695 152.593 15.6695C153.49 15.6695 154.227 15.349 154.836 14.7081C155.445 14.0673 155.765 13.2021 155.765 12.0805C155.765 10.959 155.445 10.0297 154.836 9.38886Z" fill="#00C49A"/>
<path d="M177.074 13.0738H166.981C167.045 13.9711 167.333 14.676 167.846 15.1567C168.359 15.6374 168.999 15.8617 169.736 15.8617C170.858 15.8617 171.627 15.381 172.044 14.4517H176.786C176.53 15.413 176.113 16.2782 175.472 17.0473C174.831 17.8163 174.03 18.4252 173.101 18.8417C172.14 19.2904 171.082 19.4826 169.897 19.4826C168.487 19.4826 167.205 19.1942 166.083 18.5854C164.962 17.9766 164.097 17.1114 163.488 15.9898C162.847 14.8683 162.559 13.5545 162.559 12.0164C162.559 10.4783 162.879 9.19653 163.488 8.04295C164.097 6.92142 164.962 6.05623 166.083 5.4474C167.205 4.83857 168.487 4.55017 169.929 4.55017C171.339 4.55017 172.588 4.83857 173.678 5.4474C174.767 6.02419 175.633 6.88937 176.241 7.97887C176.85 9.06836 177.171 10.3501 177.171 11.8241C177.171 12.2087 177.139 12.6252 177.074 13.0738ZM172.588 10.6065C172.588 9.83741 172.332 9.22858 171.819 8.77996C171.307 8.33135 170.634 8.10704 169.865 8.10704C169.128 8.10704 168.487 8.33135 167.974 8.74792C167.461 9.19653 167.141 9.80537 167.013 10.6065H172.588Z" fill="#00C49A"/>
<path d="M202.389 6.21651C203.447 7.30601 203.991 8.84411 203.991 10.7667V19.2584H199.569V11.4076C199.569 10.4783 199.313 9.74134 198.832 9.22864C198.352 8.71594 197.647 8.45958 196.781 8.45958C195.916 8.45958 195.243 8.71594 194.731 9.22864C194.25 9.74134 193.994 10.4783 193.994 11.4076V19.3225H189.572V11.4076C189.572 10.4783 189.315 9.74134 188.835 9.22864C188.354 8.71594 187.649 8.45958 186.784 8.45958C185.919 8.45958 185.246 8.71594 184.733 9.22864C184.252 9.74134 183.996 10.4783 183.996 11.4076V19.3225H179.542V4.74249H183.996V6.569C184.445 5.96016 185.053 5.4795 185.758 5.12702C186.495 4.77454 187.329 4.58228 188.226 4.58228C189.315 4.58228 190.309 4.80658 191.174 5.28724C192.039 5.7679 192.712 6.44082 193.193 7.30601C193.705 6.50491 194.378 5.86403 195.243 5.35133C196.109 4.83863 197.07 4.58228 198.095 4.58228C199.89 4.58228 201.332 5.12702 202.389 6.21651Z" fill="#00C49A"/>
<path d="M222 4.74255L212.867 26.212H208.061L211.393 18.8098L205.465 4.74255H210.432L213.797 13.843L217.129 4.74255H222Z" fill="#00C49A"/>
</svg>
